<svg width="24" height="24" viewBox="0 0 24 24" fill="none" xmlns="http://www.w3.org/2000/svg">
  <!-- 쓰레기 뭉치 -->
  <path d="M7 7C5 5 8 2 10 4C12 2 15 3 14 6C17 4 20 7 17 9H7C5 8 6 6 7 7Z" fill="#555"/>
  <!-- 통 본체 -->
  <path d="M3 9H21" stroke="#333" stroke-width="2" stroke-linecap="round"/>
  <path d="M19 9V20C19 21 18 22 17 22H7C6 22 5 21 5 20V9" stroke="#333" stroke-width="2" stroke-linecap="round"/>
  <path d="M8 9V4C8 3 9 2 10 2H14C15 2 16 3 16 4V9" stroke="#333" stroke-width="2" stroke-linecap="round"/>
  <line x1="10" y1="13" x2="10" y2="18" stroke="#333" stroke-width="2" stroke-linecap="round"/>
  <line x1="14" y1="13" x2="14" y2="18" stroke="#333" stroke-width="2" stroke-linecap="round"/>
</svg>

